<svg id="visual" viewBox="0 0 540 960" width="540" height="960" xmlns="http://www.w3.org/2000/svg" xmlns:xlink="http://www.w3.org/1999/xlink" version="1.1"><path d="M0 39L3.8 37.5C7.7 36 15.3 33 23.2 36.3C31 39.7 39 49.3 46.8 52.5C54.7 55.7 62.3 52.3 70.2 53.8C78 55.3 86 61.7 93.8 61.7C101.7 61.7 109.3 55.3 117.2 57C125 58.7 133 68.3 140.8 74.7C148.7 81 156.3 84 164.2 77.5C172 71 180 55 187.8 47C195.7 39 203.3 39 211.2 50.3C219 61.7 227 84.3 234.8 94C242.7 103.7 250.3 100.3 258.2 92.3C266 84.3 274 71.7 281.8 65.3C289.7 59 297.3 59 305.2 65.3C313 71.7 321 84.3 328.8 89C336.7 93.7 344.3 90.3 352.2 88.7C360 87 368 87 375.8 83.8C383.7 80.7 391.3 74.3 399.2 63.2C407 52 415 36 422.8 31.2C430.7 26.3 438.3 32.7 446.2 32.7C454 32.7 462 26.3 469.8 23.2C477.7 20 485.3 20 493.2 21.7C501 23.3 509 26.7 516.8 26.7C524.7 26.7 532.3 23.3 536.2 21.7L540 20L540 0L536.2 0C532.3 0 524.7 0 516.8 0C509 0 501 0 493.2 0C485.3 0 477.7 0 469.8 0C462 0 454 0 446.2 0C438.3 0 430.7 0 422.8 0C415 0 407 0 399.2 0C391.3 0 383.7 0 375.8 0C368 0 360 0 352.2 0C344.3 0 336.7 0 328.8 0C321 0 313 0 305.2 0C297.3 0 289.7 0 281.8 0C274 0 266 0 258.2 0C250.3 0 242.7 0 234.8 0C227 0 219 0 211.2 0C203.3 0 195.7 0 187.8 0C180 0 172 0 164.2 0C156.3 0 148.7 0 140.8 0C133 0 125 0 117.2 0C109.3 0 101.7 0 93.8 0C86 0 78 0 70.2 0C62.3 0 54.7 0 46.8 0C39 0 31 0 23.2 0C15.3 0 7.7 0 3.8 0L0 0Z" fill="#cc6200"></path><path d="M0 97L3.8 90.7C7.7 84.3 15.3 71.7 23.2 78C31 84.3 39 109.7 46.8 120.8C54.7 132 62.3 129 70.2 129C78 129 86 132 93.8 132C101.7 132 109.3 129 117.2 124.3C125 119.7 133 113.3 140.8 113.3C148.7 113.3 156.3 119.7 164.2 124.3C172 129 180 132 187.8 136.8C195.7 141.7 203.3 148.3 211.2 151.7C219 155 227 155 234.8 153.3C242.7 151.7 250.3 148.3 258.2 149.8C266 151.3 274 157.7 281.8 154.5C289.7 151.3 297.3 138.7 305.2 140.3C313 142 321 158 328.8 161.2C336.7 164.3 344.3 154.7 352.2 153C360 151.3 368 157.7 375.8 164C383.7 170.3 391.3 176.7 399.2 165.5C407 154.3 415 125.7 422.8 106.5C430.7 87.3 438.3 77.7 446.2 72.8C454 68 462 68 469.8 68C477.7 68 485.3 68 493.2 66.5C501 65 509 62 516.8 60.5C524.7 59 532.3 59 536.2 59L540 59L540 18L536.2 19.7C532.3 21.3 524.7 24.7 516.8 24.7C509 24.7 501 21.3 493.2 19.7C485.3 18 477.7 18 469.8 21.2C462 24.3 454 30.7 446.2 30.7C438.3 30.7 430.7 24.3 422.8 29.2C415 34 407 50 399.2 61.2C391.3 72.3 383.7 78.7 375.8 81.8C368 85 360 85 352.2 86.7C344.3 88.3 336.7 91.7 328.8 87C321 82.3 313 69.7 305.2 63.3C297.3 57 289.7 57 281.8 63.3C274 69.7 266 82.3 258.2 90.3C250.3 98.3 242.7 101.7 234.8 92C227 82.3 219 59.7 211.2 48.3C203.3 37 195.7 37 187.8 45C180 53 172 69 164.2 75.5C156.3 82 148.7 79 140.8 72.7C133 66.3 125 56.7 117.2 55C109.3 53.3 101.7 59.7 93.8 59.7C86 59.7 78 53.3 70.2 51.8C62.3 50.3 54.7 53.7 46.8 50.5C39 47.3 31 37.7 23.2 34.3C15.3 31 7.7 34 3.8 35.5L0 37Z" fill="#9f500f"></path><path d="M0 145L3.8 145C7.7 145 15.3 145 23.2 148.2C31 151.3 39 157.7 46.8 165.7C54.7 173.7 62.3 183.3 70.2 181.8C78 180.3 86 167.7 93.8 167.7C101.7 167.7 109.3 180.3 117.2 185C125 189.7 133 186.3 140.8 189.5C148.7 192.7 156.3 202.3 164.2 205.7C172 209 180 206 187.8 201.2C195.7 196.3 203.3 189.7 211.2 189.7C219 189.7 227 196.3 234.8 202.8C242.7 209.3 250.3 215.7 258.2 217.2C266 218.7 274 215.3 281.8 202.5C289.7 189.7 297.3 167.3 305.2 173.8C313 180.3 321 215.7 328.8 220.5C336.7 225.3 344.3 199.7 352.2 194.8C360 190 368 206 375.8 212.3C383.7 218.7 391.3 215.3 399.2 205.7C407 196 415 180 422.8 160.8C430.7 141.7 438.3 119.3 446.2 109.8C454 100.3 462 103.7 469.8 105.3C477.7 107 485.3 107 493.2 113.3C501 119.7 509 132.3 516.8 133.8C524.7 135.3 532.3 125.7 536.2 120.8L540 116L540 57L536.2 57C532.3 57 524.7 57 516.8 58.5C509 60 501 63 493.2 64.5C485.3 66 477.7 66 469.8 66C462 66 454 66 446.2 70.8C438.3 75.7 430.7 85.3 422.8 104.5C415 123.7 407 152.3 399.2 163.5C391.3 174.7 383.7 168.3 375.8 162C368 155.7 360 149.3 352.2 151C344.3 152.7 336.7 162.3 328.8 159.2C321 156 313 140 305.2 138.3C297.3 136.7 289.7 149.3 281.8 152.5C274 155.7 266 149.3 258.2 147.8C250.3 146.3 242.7 149.7 234.8 151.3C227 153 219 153 211.2 149.7C203.3 146.3 195.7 139.7 187.8 134.8C180 130 172 127 164.2 122.3C156.3 117.7 148.7 111.3 140.8 111.3C133 111.3 125 117.7 117.2 122.3C109.3 127 101.7 130 93.8 130C86 130 78 127 70.2 127C62.3 127 54.7 130 46.8 118.8C39 107.7 31 82.3 23.2 76C15.3 69.7 7.7 82.3 3.8 88.7L0 95Z" fill="#733e14"></path><path d="M0 155L3.8 156.5C7.7 158 15.3 161 23.2 169C31 177 39 190 46.8 196.5C54.7 203 62.3 203 70.2 198.2C78 193.3 86 183.7 93.8 186.8C101.7 190 109.3 206 117.2 212.3C125 218.7 133 215.3 140.8 216.8C148.7 218.3 156.3 224.7 164.2 226.3C172 228 180 225 187.8 221.8C195.7 218.7 203.3 215.3 211.2 213.7C219 212 227 212 234.8 216.8C242.7 221.7 250.3 231.3 258.2 236.2C266 241 274 241 281.8 234.7C289.7 228.3 297.3 215.7 305.2 220.5C313 225.3 321 247.7 328.8 252.3C336.7 257 344.3 244 352.2 244C360 244 368 257 375.8 260.3C383.7 263.7 391.3 257.3 399.2 244.5C407 231.7 415 212.3 422.8 194.7C430.7 177 438.3 161 446.2 148.2C454 135.3 462 125.7 469.8 127.3C477.7 129 485.3 142 493.2 156.5C501 171 509 187 516.8 185.3C524.7 183.7 532.3 164.3 536.2 154.7L540 145L540 114L536.2 118.8C532.3 123.7 524.7 133.3 516.8 131.8C509 130.3 501 117.7 493.2 111.3C485.3 105 477.7 105 469.8 103.3C462 101.7 454 98.3 446.2 107.8C438.3 117.3 430.7 139.7 422.8 158.8C415 178 407 194 399.2 203.7C391.3 213.3 383.7 216.7 375.8 210.3C368 204 360 188 352.2 192.8C344.3 197.7 336.7 223.3 328.8 218.5C321 213.7 313 178.3 305.2 171.8C297.3 165.3 289.7 187.7 281.8 200.5C274 213.3 266 216.7 258.2 215.2C250.3 213.7 242.7 207.3 234.8 200.8C227 194.3 219 187.7 211.2 187.7C203.3 187.7 195.7 194.3 187.8 199.2C180 204 172 207 164.2 203.7C156.3 200.3 148.7 190.7 140.8 187.5C133 184.3 125 187.7 117.2 183C109.3 178.3 101.7 165.7 93.8 165.7C86 165.7 78 178.3 70.2 179.8C62.3 181.3 54.7 171.7 46.8 163.7C39 155.7 31 149.3 23.2 146.2C15.3 143 7.7 143 3.8 143L0 143Z" fill="#4b2c16"></path><path d="M0 318L3.8 318C7.7 318 15.3 318 23.2 319.5C31 321 39 324 46.8 317.5C54.7 311 62.3 295 70.2 288.7C78 282.3 86 285.7 93.8 305C101.7 324.3 109.3 359.7 117.2 367.7C125 375.7 133 356.3 140.8 341.8C148.7 327.3 156.3 317.7 164.2 312.8C172 308 180 308 187.8 304.8C195.7 301.7 203.3 295.3 211.2 306.5C219 317.7 227 346.3 234.8 351.2C242.7 356 250.3 337 258.2 329C266 321 274 324 281.8 328.8C289.7 333.7 297.3 340.3 305.2 345.2C313 350 321 353 328.8 343.3C336.7 333.7 344.3 311.3 352.2 311.3C360 311.3 368 333.7 375.8 351.3C383.7 369 391.3 382 399.2 367.7C407 353.3 415 311.7 422.8 300.3C430.7 289 438.3 308 446.2 292C454 276 462 225 469.8 204.3C477.7 183.7 485.3 193.3 493.2 220.5C501 247.7 509 292.3 516.8 313C524.7 333.7 532.3 330.3 536.2 328.7L540 327L540 143L536.2 152.7C532.3 162.3 524.7 181.7 516.8 183.3C509 185 501 169 493.2 154.5C485.3 140 477.7 127 469.8 125.3C462 123.7 454 133.3 446.2 146.2C438.3 159 430.7 175 422.8 192.7C415 210.3 407 229.7 399.2 242.5C391.3 255.3 383.7 261.7 375.8 258.3C368 255 360 242 352.2 242C344.3 242 336.7 255 328.8 250.3C321 245.7 313 223.3 305.2 218.5C297.3 213.7 289.7 226.3 281.8 232.7C274 239 266 239 258.2 234.2C250.3 229.3 242.7 219.7 234.8 214.8C227 210 219 210 211.2 211.7C203.3 213.3 195.7 216.7 187.8 219.8C180 223 172 226 164.2 224.3C156.3 222.7 148.7 216.3 140.8 214.8C133 213.3 125 216.7 117.2 210.3C109.3 204 101.7 188 93.8 184.8C86 181.7 78 191.3 70.2 196.2C62.3 201 54.7 201 46.8 194.5C39 188 31 175 23.2 167C15.3 159 7.7 156 3.8 154.5L0 153Z" fill="#141414"></path><path d="M0 567L3.8 538.3C7.7 509.7 15.3 452.3 23.2 450.8C31 449.3 39 503.7 46.8 519.7C54.7 535.7 62.3 513.3 70.2 510.2C78 507 86 523 93.8 550.2C101.7 577.3 109.3 615.7 117.2 620.3C125 625 133 596 140.8 580C148.7 564 156.3 561 164.2 564.3C172 567.7 180 577.3 187.8 551.7C195.7 526 203.3 465 211.2 471.3C219 477.7 227 551.3 234.8 565.8C242.7 580.3 250.3 535.7 258.2 500.5C266 465.3 274 439.7 281.8 455.7C289.7 471.7 297.3 529.3 305.2 542.2C313 555 321 523 328.8 500.5C336.7 478 344.3 465 352.2 468.2C360 471.3 368 490.7 375.8 505.2C383.7 519.7 391.3 529.3 399.2 540.5C407 551.7 415 564.3 422.8 541.8C430.7 519.3 438.3 461.7 446.2 437.7C454 413.7 462 423.3 469.8 444.2C477.7 465 485.3 497 493.2 503.3C501 509.7 509 490.3 516.8 480.7C524.7 471 532.3 471 536.2 471L540 471L540 325L536.2 326.7C532.3 328.3 524.7 331.7 516.8 311C509 290.3 501 245.7 493.2 218.5C485.3 191.3 477.7 181.7 469.8 202.3C462 223 454 274 446.2 290C438.3 306 430.7 287 422.8 298.3C415 309.7 407 351.3 399.2 365.7C391.3 380 383.7 367 375.8 349.3C368 331.7 360 309.3 352.2 309.3C344.3 309.3 336.7 331.7 328.8 341.3C321 351 313 348 305.2 343.2C297.3 338.3 289.7 331.7 281.8 326.8C274 322 266 319 258.2 327C250.3 335 242.7 354 234.8 349.2C227 344.3 219 315.7 211.2 304.5C203.3 293.3 195.7 299.7 187.8 302.8C180 306 172 306 164.2 310.8C156.3 315.7 148.7 325.3 140.8 339.8C133 354.3 125 373.7 117.2 365.7C109.3 357.7 101.7 322.3 93.8 303C86 283.7 78 280.3 70.2 286.7C62.3 293 54.7 309 46.8 315.5C39 322 31 319 23.2 317.5C15.3 316 7.7 316 3.8 316L0 316Z" fill="#141414"></path><path d="M0 635L3.8 601.3C7.7 567.7 15.3 500.3 23.2 498.7C31 497 39 561 46.8 575.3C54.7 589.7 62.3 554.3 70.2 551.2C78 548 86 577 93.8 602.7C101.7 628.3 109.3 650.7 117.2 650.7C125 650.7 133 628.3 140.8 612.3C148.7 596.3 156.3 586.7 164.2 594.7C172 602.7 180 628.3 187.8 609.2C195.7 590 203.3 526 211.2 534C219 542 227 622 234.8 638C242.7 654 250.3 606 258.2 572.3C266 538.7 274 519.3 281.8 530.5C289.7 541.7 297.3 583.3 305.2 591.3C313 599.3 321 573.7 328.8 557.7C336.7 541.7 344.3 535.3 352.2 533.8C360 532.3 368 535.7 375.8 548.5C383.7 561.3 391.3 583.7 399.2 601.2C407 618.7 415 631.3 422.8 608.8C430.7 586.3 438.3 528.7 446.2 504.7C454 480.7 462 490.3 469.8 506.3C477.7 522.3 485.3 544.7 493.2 544.7C501 544.7 509 522.3 516.8 514.3C524.7 506.3 532.3 512.7 536.2 515.8L540 519L540 469L536.2 469C532.3 469 524.7 469 516.8 478.7C509 488.3 501 507.7 493.2 501.3C485.3 495 477.7 463 469.8 442.2C462 421.3 454 411.7 446.2 435.7C438.3 459.7 430.7 517.3 422.8 539.8C415 562.3 407 549.7 399.2 538.5C391.3 527.3 383.7 517.7 375.8 503.2C368 488.7 360 469.3 352.2 466.2C344.3 463 336.7 476 328.8 498.5C321 521 313 553 305.2 540.2C297.3 527.3 289.7 469.7 281.8 453.7C274 437.7 266 463.3 258.2 498.5C250.3 533.7 242.7 578.3 234.8 563.8C227 549.3 219 475.7 211.2 469.3C203.3 463 195.7 524 187.8 549.7C180 575.3 172 565.7 164.2 562.3C156.3 559 148.7 562 140.8 578C133 594 125 623 117.2 618.3C109.3 613.7 101.7 575.3 93.8 548.2C86 521 78 505 70.2 508.2C62.3 511.3 54.7 533.7 46.8 517.7C39 501.7 31 447.3 23.2 448.8C15.3 450.3 7.7 507.7 3.8 536.3L0 565Z" fill="#141414"></path><path d="M0 731L3.8 721.3C7.7 711.7 15.3 692.3 23.2 700.3C31 708.3 39 743.7 46.8 753.3C54.7 763 62.3 747 70.2 729.3C78 711.7 86 692.3 93.8 692.3C101.7 692.3 109.3 711.7 117.2 714.8C125 718 133 705 140.8 706.5C148.7 708 156.3 724 164.2 743.2C172 762.3 180 784.7 187.8 776.7C195.7 768.7 203.3 730.3 211.2 735.2C219 740 227 788 234.8 794.5C242.7 801 250.3 766 258.2 750C266 734 274 737 281.8 735.3C289.7 733.7 297.3 727.3 305.2 730.5C313 733.7 321 746.3 328.8 754.3C336.7 762.3 344.3 765.7 352.2 772.2C360 778.7 368 788.3 375.8 794.7C383.7 801 391.3 804 399.2 797.5C407 791 415 775 422.8 760.7C430.7 746.3 438.3 733.7 446.2 719.3C454 705 462 689 469.8 695.3C477.7 701.7 485.3 730.3 493.2 749.5C501 768.7 509 778.3 516.8 767.2C524.7 756 532.3 724 536.2 708L540 692L540 517L536.2 513.8C532.3 510.7 524.7 504.3 516.8 512.3C509 520.3 501 542.7 493.2 542.7C485.3 542.7 477.7 520.3 469.8 504.3C462 488.3 454 478.7 446.2 502.7C438.3 526.7 430.7 584.3 422.8 606.8C415 629.3 407 616.7 399.2 599.2C391.3 581.7 383.7 559.3 375.8 546.5C368 533.7 360 530.3 352.2 531.8C344.3 533.3 336.7 539.7 328.8 555.7C321 571.7 313 597.3 305.2 589.3C297.3 581.3 289.7 539.7 281.8 528.5C274 517.3 266 536.7 258.2 570.3C250.3 604 242.7 652 234.8 636C227 620 219 540 211.2 532C203.3 524 195.7 588 187.8 607.2C180 626.3 172 600.7 164.2 592.7C156.3 584.7 148.7 594.3 140.8 610.3C133 626.3 125 648.7 117.2 648.7C109.3 648.7 101.7 626.3 93.8 600.7C86 575 78 546 70.2 549.2C62.3 552.3 54.7 587.7 46.8 573.3C39 559 31 495 23.2 496.7C15.3 498.3 7.7 565.7 3.8 599.3L0 633Z" fill="#141414"></path><path d="M0 759L3.8 754.3C7.7 749.7 15.3 740.3 23.2 748.3C31 756.3 39 781.7 46.8 791.2C54.7 800.7 62.3 794.3 70.2 781.7C78 769 86 750 93.8 750C101.7 750 109.3 769 117.2 773.7C125 778.3 133 768.7 140.8 767.2C148.7 765.7 156.3 772.3 164.2 783.7C172 795 180 811 187.8 804.5C195.7 798 203.3 769 211.2 777C219 785 227 830 234.8 834.8C242.7 839.7 250.3 804.3 258.2 791.5C266 778.7 274 788.3 281.8 790C289.7 791.7 297.3 785.3 305.2 788.5C313 791.7 321 804.3 328.8 805.8C336.7 807.3 344.3 797.7 352.2 797.7C360 797.7 368 807.3 375.8 813.8C383.7 820.3 391.3 823.7 399.2 825.3C407 827 415 827 422.8 814.2C430.7 801.3 438.3 775.7 446.2 758C454 740.3 462 730.7 469.8 741.8C477.7 753 485.3 785 493.2 801C501 817 509 817 516.8 804.2C524.7 791.3 532.3 765.7 536.2 752.8L540 740L540 690L536.2 706C532.3 722 524.7 754 516.8 765.2C509 776.3 501 766.7 493.2 747.5C485.3 728.3 477.7 699.7 469.8 693.3C462 687 454 703 446.2 717.3C438.3 731.7 430.7 744.3 422.8 758.7C415 773 407 789 399.2 795.5C391.3 802 383.7 799 375.8 792.7C368 786.3 360 776.7 352.2 770.2C344.3 763.7 336.7 760.3 328.8 752.3C321 744.3 313 731.7 305.2 728.5C297.3 725.3 289.7 731.7 281.8 733.3C274 735 266 732 258.2 748C250.3 764 242.7 799 234.8 792.5C227 786 219 738 211.2 733.2C203.3 728.3 195.7 766.7 187.8 774.7C180 782.7 172 760.3 164.2 741.2C156.3 722 148.7 706 140.8 704.5C133 703 125 716 117.2 712.8C109.3 709.7 101.7 690.3 93.8 690.3C86 690.3 78 709.7 70.2 727.3C62.3 745 54.7 761 46.8 751.3C39 741.7 31 706.3 23.2 698.3C15.3 690.3 7.7 709.7 3.8 719.3L0 729Z" fill="#4b2c16"></path><path d="M0 788L3.8 783.2C7.7 778.3 15.3 768.7 23.2 781.5C31 794.3 39 829.7 46.8 837.7C54.7 845.7 62.3 826.3 70.2 810.3C78 794.3 86 781.7 93.8 788.2C101.7 794.7 109.3 820.3 117.2 823.5C125 826.7 133 807.3 140.8 800.8C148.7 794.3 156.3 800.7 164.2 816.7C172 832.7 180 858.3 187.8 858.3C195.7 858.3 203.3 832.7 211.2 834.3C219 836 227 865 234.8 868.3C242.7 871.7 250.3 849.3 258.2 836.5C266 823.7 274 820.3 281.8 817C289.7 813.7 297.3 810.3 305.2 821.5C313 832.7 321 858.3 328.8 868C336.7 877.7 344.3 871.3 352.2 863.3C360 855.3 368 845.7 375.8 847.3C383.7 849 391.3 862 399.2 866.8C407 871.7 415 868.3 422.8 858.7C430.7 849 438.3 833 446.2 817C454 801 462 785 469.8 793C477.7 801 485.3 833 493.2 850.7C501 868.3 509 871.7 516.8 855.7C524.7 839.7 532.3 804.3 536.2 786.7L540 769L540 738L536.2 750.8C532.3 763.7 524.7 789.3 516.8 802.2C509 815 501 815 493.2 799C485.3 783 477.7 751 469.8 739.8C462 728.7 454 738.3 446.2 756C438.3 773.7 430.7 799.3 422.8 812.2C415 825 407 825 399.2 823.3C391.3 821.7 383.7 818.3 375.8 811.8C368 805.3 360 795.7 352.2 795.7C344.3 795.7 336.7 805.3 328.8 803.8C321 802.3 313 789.7 305.2 786.5C297.3 783.3 289.7 789.7 281.8 788C274 786.3 266 776.7 258.2 789.5C250.3 802.3 242.7 837.7 234.8 832.8C227 828 219 783 211.2 775C203.3 767 195.7 796 187.8 802.5C180 809 172 793 164.2 781.7C156.3 770.3 148.7 763.7 140.8 765.2C133 766.7 125 776.3 117.2 771.7C109.3 767 101.7 748 93.8 748C86 748 78 767 70.2 779.7C62.3 792.3 54.7 798.7 46.8 789.2C39 779.7 31 754.3 23.2 746.3C15.3 738.3 7.7 747.7 3.8 752.3L0 757Z" fill="#733e14"></path><path d="M0 923L3.8 919.7C7.7 916.3 15.3 909.7 23.2 908C31 906.3 39 909.7 46.8 913C54.7 916.3 62.3 919.7 70.2 919.7C78 919.7 86 916.3 93.8 921C101.7 925.7 109.3 938.3 117.2 938.3C125 938.3 133 925.7 140.8 922.5C148.7 919.3 156.3 925.7 164.2 927.3C172 929 180 926 187.8 921.2C195.7 916.3 203.3 909.7 211.2 911.2C219 912.7 227 922.3 234.8 927.2C242.7 932 250.3 932 258.2 935.2C266 938.3 274 944.7 281.8 946.3C289.7 948 297.3 945 305.2 943.5C313 942 321 942 328.8 942C336.7 942 344.3 942 352.2 943.5C360 945 368 948 375.8 944.8C383.7 941.7 391.3 932.3 399.2 924.3C407 916.3 415 909.7 422.8 909.7C430.7 909.7 438.3 916.3 446.2 919.7C454 923 462 923 469.8 926.2C477.7 929.3 485.3 935.7 493.2 935.7C501 935.7 509 929.3 516.8 924.5C524.7 919.7 532.3 916.3 536.2 914.7L540 913L540 767L536.2 784.7C532.3 802.3 524.7 837.7 516.8 853.7C509 869.7 501 866.3 493.2 848.7C485.3 831 477.7 799 469.8 791C462 783 454 799 446.2 815C438.3 831 430.7 847 422.8 856.7C415 866.3 407 869.7 399.2 864.8C391.3 860 383.7 847 375.8 845.3C368 843.7 360 853.3 352.2 861.3C344.3 869.3 336.7 875.7 328.8 866C321 856.3 313 830.7 305.2 819.5C297.3 808.3 289.7 811.7 281.8 815C274 818.3 266 821.7 258.2 834.5C250.3 847.3 242.7 869.7 234.8 866.3C227 863 219 834 211.2 832.3C203.3 830.7 195.7 856.3 187.8 856.3C180 856.3 172 830.7 164.2 814.7C156.3 798.7 148.7 792.3 140.8 798.8C133 805.3 125 824.7 117.2 821.5C109.3 818.3 101.7 792.7 93.8 786.2C86 779.7 78 792.3 70.2 808.3C62.3 824.3 54.7 843.7 46.8 835.7C39 827.7 31 792.3 23.2 779.5C15.3 766.7 7.7 776.3 3.8 781.2L0 786Z" fill="#9f500f"></path><path d="M0 961L3.8 961C7.7 961 15.3 961 23.2 961C31 961 39 961 46.8 961C54.7 961 62.3 961 70.2 961C78 961 86 961 93.8 961C101.7 961 109.3 961 117.2 961C125 961 133 961 140.8 961C148.7 961 156.3 961 164.2 961C172 961 180 961 187.8 961C195.7 961 203.3 961 211.2 961C219 961 227 961 234.8 961C242.7 961 250.3 961 258.2 961C266 961 274 961 281.8 961C289.7 961 297.3 961 305.2 961C313 961 321 961 328.8 961C336.7 961 344.3 961 352.2 961C360 961 368 961 375.8 961C383.7 961 391.3 961 399.2 961C407 961 415 961 422.8 961C430.7 961 438.3 961 446.2 961C454 961 462 961 469.8 961C477.7 961 485.3 961 493.2 961C501 961 509 961 516.8 961C524.7 961 532.3 961 536.2 961L540 961L540 911L536.2 912.7C532.3 914.3 524.7 917.7 516.8 922.5C509 927.3 501 933.7 493.2 933.7C485.3 933.7 477.7 927.3 469.8 924.2C462 921 454 921 446.2 917.7C438.3 914.3 430.7 907.7 422.8 907.7C415 907.7 407 914.3 399.2 922.3C391.3 930.3 383.7 939.7 375.8 942.8C368 946 360 943 352.2 941.5C344.3 940 336.7 940 328.8 940C321 940 313 940 305.2 941.5C297.3 943 289.7 946 281.8 944.3C274 942.7 266 936.3 258.2 933.2C250.3 930 242.7 930 234.8 925.2C227 920.3 219 910.7 211.2 909.2C203.3 907.7 195.7 914.3 187.8 919.2C180 924 172 927 164.2 925.3C156.3 923.7 148.7 917.3 140.8 920.5C133 923.7 125 936.3 117.2 936.3C109.3 936.3 101.7 923.7 93.8 919C86 914.3 78 917.7 70.2 917.7C62.3 917.7 54.7 914.3 46.8 911C39 907.7 31 904.3 23.2 906C15.3 907.7 7.7 914.3 3.8 917.7L0 921Z" fill="#cc6200"></path></svg>