<svg id="visual" viewBox="0 0 900 450" width="900" height="450" xmlns="http://www.w3.org/2000/svg" xmlns:xlink="http://www.w3.org/1999/xlink" version="1.1"><path d="M0 19L6.5 18.3C13 17.7 26 16.3 39 17.8C52 19.3 65 23.7 78 25.2C91 26.7 104 25.3 117.2 26.2C130.3 27 143.7 30 156.8 30C170 30 183 27 196 27.7C209 28.3 222 32.7 235 35.7C248 38.7 261 40.3 274 37.3C287 34.3 300 26.7 313 22.8C326 19 339 19 352 24.3C365 29.7 378 40.3 391 44.8C404 49.3 417 47.7 430.2 43.8C443.3 40 456.7 34 469.8 31C483 28 496 28 509 31C522 34 535 40 548 42.3C561 44.7 574 43.3 587 42.7C600 42 613 42 626 40.5C639 39 652 36 665 30.7C678 25.3 691 17.7 704 15.3C717 13 730 16 743.2 16C756.3 16 769.7 13 782.8 11.5C796 10 809 10 822 10.8C835 11.7 848 13.3 861 13.3C874 13.3 887 11.7 893.5 10.8L900 10L900 0L893.5 0C887 0 874 0 861 0C848 0 835 0 822 0C809 0 796 0 782.8 0C769.7 0 756.3 0 743.2 0C730 0 717 0 704 0C691 0 678 0 665 0C652 0 639 0 626 0C613 0 600 0 587 0C574 0 561 0 548 0C535 0 522 0 509 0C496 0 483 0 469.8 0C456.7 0 443.3 0 430.2 0C417 0 404 0 391 0C378 0 365 0 352 0C339 0 326 0 313 0C300 0 287 0 274 0C261 0 248 0 235 0C222 0 209 0 196 0C183 0 170 0 156.8 0C143.7 0 130.3 0 117.2 0C104 0 91 0 78 0C65 0 52 0 39 0C26 0 13 0 6.5 0L0 0Z" fill="#cc6200"></path><path d="M0 46L6.5 43C13 40 26 34 39 37C52 40 65 52 78 57.3C91 62.7 104 61.3 117.2 61.3C130.3 61.3 143.7 62.7 156.8 62.7C170 62.7 183 61.3 196 59.2C209 57 222 54 235 54C248 54 261 57 274 59.2C287 61.3 300 62.7 313 64.8C326 67 339 70 352 71.5C365 73 378 73 391 72.3C404 71.7 417 70.3 430.2 71.2C443.3 72 456.7 75 469.8 73.5C483 72 496 66 509 66.7C522 67.3 535 74.7 548 76.2C561 77.7 574 73.3 587 72.7C600 72 613 75 626 78C639 81 652 84 665 78.7C678 73.3 691 59.7 704 50.7C717 41.7 730 37.3 743.2 35.2C756.3 33 769.7 33 782.8 33C796 33 809 33 822 32.2C835 31.3 848 29.7 861 28.8C874 28 887 28 893.5 28L900 28L900 8L893.5 8.8C887 9.7 874 11.3 861 11.3C848 11.3 835 9.7 822 8.8C809 8 796 8 782.8 9.5C769.7 11 756.3 14 743.2 14C730 14 717 11 704 13.3C691 15.7 678 23.3 665 28.7C652 34 639 37 626 38.5C613 40 600 40 587 40.7C574 41.3 561 42.7 548 40.3C535 38 522 32 509 29C496 26 483 26 469.8 29C456.7 32 443.3 38 430.2 41.8C417 45.7 404 47.3 391 42.8C378 38.3 365 27.7 352 22.3C339 17 326 17 313 20.8C300 24.7 287 32.3 274 35.3C261 38.3 248 36.7 235 33.7C222 30.7 209 26.3 196 25.7C183 25 170 28 156.8 28C143.7 28 130.3 25 117.2 24.2C104 23.3 91 24.7 78 23.2C65 21.7 52 17.3 39 15.8C26 14.3 13 15.7 6.5 16.3L0 17Z" fill="#9f500f"></path><path d="M0 69L6.5 69C13 69 26 69 39 70.5C52 72 65 75 78 78.7C91 82.3 104 86.7 117.2 85.8C130.3 85 143.7 79 156.8 79C170 79 183 85 196 87.3C209 89.7 222 88.3 235 89.8C248 91.3 261 95.7 274 97.2C287 98.7 300 97.3 313 95.2C326 93 339 90 352 90C365 90 378 93 391 96C404 99 417 102 430.2 102.7C443.3 103.3 456.7 101.7 469.8 95.7C483 89.7 496 79.3 509 82.3C522 85.3 535 101.7 548 103.8C561 106 574 94 587 91.8C600 89.7 613 97.3 626 100.3C639 103.3 652 101.7 665 97.2C678 92.7 691 85.3 704 76.3C717 67.3 730 56.7 743.2 52.2C756.3 47.7 769.7 49.3 782.8 50.2C796 51 809 51 822 54C835 57 848 63 861 63.7C874 64.3 887 59.7 893.5 57.3L900 55L900 26L893.5 26C887 26 874 26 861 26.8C848 27.7 835 29.3 822 30.2C809 31 796 31 782.8 31C769.7 31 756.3 31 743.2 33.2C730 35.3 717 39.7 704 48.7C691 57.7 678 71.3 665 76.7C652 82 639 79 626 76C613 73 600 70 587 70.7C574 71.3 561 75.7 548 74.2C535 72.7 522 65.3 509 64.7C496 64 483 70 469.8 71.5C456.7 73 443.3 70 430.2 69.2C417 68.3 404 69.7 391 70.3C378 71 365 71 352 69.5C339 68 326 65 313 62.8C300 60.7 287 59.3 274 57.2C261 55 248 52 235 52C222 52 209 55 196 57.2C183 59.3 170 60.7 156.8 60.7C143.7 60.7 130.3 59.3 117.2 59.3C104 59.3 91 60.7 78 55.3C65 50 52 38 39 35C26 32 13 38 6.5 41L0 44Z" fill="#733e14"></path><path d="M0 73L6.5 73.8C13 74.7 26 76.3 39 80.2C52 84 65 90 78 93C91 96 104 96 117.2 93.7C130.3 91.3 143.7 86.7 156.8 88.2C170 89.7 183 97.3 196 100.3C209 103.3 222 101.7 235 102.3C248 103 261 106 274 106.8C287 107.7 300 106.3 313 104.8C326 103.3 339 101.7 352 100.8C365 100 378 100 391 102.3C404 104.7 417 109.3 430.2 111.7C443.3 114 456.7 114 469.8 111C483 108 496 102 509 104.2C522 106.3 535 116.7 548 118.8C561 121 574 115 587 115C600 115 613 121 626 122.5C639 124 652 121 665 115C678 109 691 100 704 91.8C717 83.7 730 76.3 743.2 70.3C756.3 64.3 769.7 59.7 782.8 60.3C796 61 809 67 822 73.8C835 80.7 848 88.3 861 87.7C874 87 887 78 893.5 73.5L900 69L900 53L893.5 55.3C887 57.7 874 62.3 861 61.7C848 61 835 55 822 52C809 49 796 49 782.8 48.2C769.7 47.3 756.3 45.7 743.2 50.2C730 54.7 717 65.3 704 74.3C691 83.3 678 90.7 665 95.2C652 99.7 639 101.3 626 98.3C613 95.3 600 87.7 587 89.8C574 92 561 104 548 101.8C535 99.7 522 83.3 509 80.3C496 77.3 483 87.7 469.8 93.7C456.7 99.7 443.3 101.3 430.2 100.7C417 100 404 97 391 94C378 91 365 88 352 88C339 88 326 91 313 93.2C300 95.3 287 96.7 274 95.2C261 93.7 248 89.3 235 87.8C222 86.3 209 87.7 196 85.3C183 83 170 77 156.8 77C143.7 77 130.3 83 117.2 83.8C104 84.7 91 80.3 78 76.7C65 73 52 70 39 68.5C26 67 13 67 6.5 67L0 67Z" fill="#4b2c16"></path><path d="M0 150L6.5 150C13 150 26 150 39 150.7C52 151.3 65 152.7 78 149.7C91 146.7 104 139.3 117.2 136.3C130.3 133.3 143.7 134.7 156.8 143.7C170 152.7 183 169.3 196 173.2C209 177 222 168 235 161.2C248 154.3 261 149.7 274 147.3C287 145 300 145 313 143.5C326 142 339 139 352 144.3C365 149.7 378 163.3 391 165.7C404 168 417 159 430.2 155.2C443.3 151.3 456.7 152.7 469.8 154.8C483 157 496 160 509 162.3C522 164.7 535 166.3 548 161.8C561 157.3 574 146.7 587 146.7C600 146.7 613 157.3 626 165.7C639 174 652 180 665 173.2C678 166.3 691 146.7 704 141.3C717 136 730 145 743.2 137.5C756.3 130 769.7 106 782.8 96.3C796 86.7 809 91.3 822 104.2C835 117 848 138 861 147.7C874 157.3 887 155.7 893.5 154.8L900 154L900 67L893.5 71.5C887 76 874 85 861 85.7C848 86.3 835 78.7 822 71.8C809 65 796 59 782.8 58.3C769.7 57.7 756.3 62.3 743.2 68.3C730 74.3 717 81.7 704 89.8C691 98 678 107 665 113C652 119 639 122 626 120.5C613 119 600 113 587 113C574 113 561 119 548 116.8C535 114.7 522 104.3 509 102.2C496 100 483 106 469.8 109C456.7 112 443.3 112 430.2 109.7C417 107.3 404 102.7 391 100.3C378 98 365 98 352 98.8C339 99.7 326 101.3 313 102.8C300 104.3 287 105.7 274 104.8C261 104 248 101 235 100.3C222 99.7 209 101.3 196 98.3C183 95.3 170 87.7 156.8 86.2C143.7 84.7 130.3 89.3 117.2 91.7C104 94 91 94 78 91C65 88 52 82 39 78.2C26 74.3 13 72.7 6.5 71.8L0 71Z" fill="#141414"></path><path d="M0 267L6.5 253.5C13 240 26 213 39 212.2C52 211.3 65 236.7 78 244.2C91 251.7 104 241.3 117.2 239.8C130.3 238.3 143.7 245.7 156.8 258.3C170 271 183 289 196 291.3C209 293.7 222 280.3 235 272.8C248 265.3 261 263.7 274 265.2C287 266.7 300 271.3 313 259.3C326 247.3 339 218.7 352 221.7C365 224.7 378 259.3 391 266.2C404 273 417 252 430.2 235.5C443.3 219 456.7 207 469.8 214.5C483 222 496 249 509 255C522 261 535 246 548 235.5C561 225 574 219 587 220.5C600 222 613 231 626 237.7C639 244.3 652 248.7 665 253.8C678 259 691 265 704 254.5C717 244 730 217 743.2 205.8C756.3 194.7 769.7 199.3 782.8 209.2C796 219 809 234 822 237C835 240 848 231 861 226.5C874 222 887 222 893.5 222L900 222L900 152L893.5 152.8C887 153.7 874 155.3 861 145.7C848 136 835 115 822 102.2C809 89.3 796 84.7 782.8 94.3C769.7 104 756.3 128 743.2 135.5C730 143 717 134 704 139.3C691 144.7 678 164.3 665 171.2C652 178 639 172 626 163.7C613 155.3 600 144.7 587 144.7C574 144.7 561 155.3 548 159.8C535 164.3 522 162.7 509 160.3C496 158 483 155 469.8 152.8C456.7 150.7 443.3 149.3 430.2 153.2C417 157 404 166 391 163.7C378 161.3 365 147.7 352 142.3C339 137 326 140 313 141.5C300 143 287 143 274 145.3C261 147.7 248 152.3 235 159.2C222 166 209 175 196 171.2C183 167.3 170 150.7 156.8 141.7C143.7 132.7 130.3 131.3 117.2 134.3C104 137.3 91 144.7 78 147.7C65 150.7 52 149.3 39 148.7C26 148 13 148 6.5 148L0 148Z" fill="#141414"></path><path d="M0 298L6.5 282.3C13 266.7 26 235.3 39 234.7C52 234 65 264 78 270.7C91 277.3 104 260.7 117.2 259.2C130.3 257.7 143.7 271.3 156.8 283.3C170 295.3 183 305.7 196 305.7C209 305.7 222 295.3 235 287.8C248 280.3 261 275.7 274 279.3C287 283 300 295 313 286C326 277 339 247 352 250.8C365 254.7 378 292.3 391 299.8C404 307.3 417 284.7 430.2 268.8C443.3 253 456.7 244 469.8 249.3C483 254.7 496 274.3 509 278.2C522 282 535 270 548 262.5C561 255 574 252 587 251.2C600 250.3 613 251.7 626 257.7C639 263.7 652 274.3 665 282.7C678 291 691 297 704 286.5C717 276 730 249 743.2 237.7C756.3 226.3 769.7 230.7 782.8 238.2C796 245.7 809 256.3 822 256.3C835 256.3 848 245.7 861 241.8C874 238 887 241 893.5 242.5L900 244L900 220L893.5 220C887 220 874 220 861 224.5C848 229 835 238 822 235C809 232 796 217 782.8 207.2C769.7 197.3 756.3 192.7 743.2 203.8C730 215 717 242 704 252.5C691 263 678 257 665 251.8C652 246.7 639 242.3 626 235.7C613 229 600 220 587 218.5C574 217 561 223 548 233.5C535 244 522 259 509 253C496 247 483 220 469.8 212.5C456.7 205 443.3 217 430.2 233.5C417 250 404 271 391 264.2C378 257.3 365 222.7 352 219.7C339 216.7 326 245.3 313 257.3C300 269.3 287 264.7 274 263.2C261 261.7 248 263.3 235 270.8C222 278.3 209 291.7 196 289.3C183 287 170 269 156.8 256.3C143.7 243.7 130.3 236.3 117.2 237.8C104 239.3 91 249.7 78 242.2C65 234.7 52 209.3 39 210.2C26 211 13 238 6.5 251.5L0 265Z" fill="#141414"></path><path d="M0 343L6.5 338.5C13 334 26 325 39 328.8C52 332.7 65 349.3 78 353.8C91 358.3 104 350.7 117.2 342.3C130.3 334 143.7 325 156.8 325C170 325 183 334 196 335.5C209 337 222 331 235 331.8C248 332.7 261 340.3 274 349.3C287 358.3 300 368.7 313 364.8C326 361 339 343 352 345.3C365 347.7 378 370.3 391 373.3C404 376.3 417 359.7 430.2 352.2C443.3 344.7 456.7 346.3 469.8 345.7C483 345 496 342 509 343.5C522 345 535 351 548 354.7C561 358.3 574 359.7 587 362.7C600 365.7 613 370.3 626 373.3C639 376.3 652 377.7 665 374.7C678 371.7 691 364.3 704 357.7C717 351 730 345 743.2 338.2C756.3 331.3 769.7 323.7 782.8 326.7C796 329.7 809 343.3 822 352.3C835 361.3 848 365.7 861 360.3C874 355 887 340 893.5 332.5L900 325L900 242L893.5 240.5C887 239 874 236 861 239.8C848 243.7 835 254.3 822 254.3C809 254.3 796 243.7 782.8 236.2C769.7 228.7 756.3 224.3 743.2 235.7C730 247 717 274 704 284.5C691 295 678 289 665 280.7C652 272.3 639 261.7 626 255.7C613 249.7 600 248.3 587 249.2C574 250 561 253 548 260.5C535 268 522 280 509 276.2C496 272.3 483 252.7 469.8 247.3C456.7 242 443.3 251 430.2 266.8C417 282.7 404 305.3 391 297.8C378 290.3 365 252.7 352 248.8C339 245 326 275 313 284C300 293 287 281 274 277.3C261 273.7 248 278.3 235 285.8C222 293.3 209 303.7 196 303.7C183 303.7 170 293.3 156.8 281.3C143.7 269.3 130.3 255.7 117.2 257.2C104 258.7 91 275.3 78 268.7C65 262 52 232 39 232.7C26 233.3 13 264.7 6.5 280.3L0 296Z" fill="#141414"></path><path d="M0 357L6.5 354.7C13 352.3 26 347.7 39 351.3C52 355 65 367 78 371.5C91 376 104 373 117.2 367C130.3 361 143.7 352 156.8 352C170 352 183 361 196 363.3C209 365.7 222 361.3 235 360.7C248 360 261 363 274 368.2C287 373.3 300 380.7 313 377.7C326 374.7 339 361.3 352 365.2C365 369 378 390 391 392.2C404 394.3 417 377.7 430.2 371.7C443.3 365.7 456.7 370.3 469.8 371.2C483 372 496 369 509 370.5C522 372 535 378 548 378.7C561 379.3 574 374.7 587 374.7C600 374.7 613 379.3 626 382.3C639 385.3 652 386.7 665 387.3C678 388 691 388 704 382C717 376 730 364 743.2 355.8C756.3 347.7 769.7 343.3 782.8 348.7C796 354 809 369 822 376.5C835 384 848 384 861 378C874 372 887 360 893.5 354L900 348L900 323L893.5 330.5C887 338 874 353 861 358.3C848 363.7 835 359.3 822 350.3C809 341.3 796 327.7 782.8 324.7C769.7 321.7 756.3 329.3 743.2 336.2C730 343 717 349 704 355.7C691 362.3 678 369.7 665 372.7C652 375.7 639 374.3 626 371.3C613 368.3 600 363.7 587 360.7C574 357.7 561 356.3 548 352.7C535 349 522 343 509 341.5C496 340 483 343 469.8 343.7C456.7 344.3 443.3 342.7 430.2 350.2C417 357.7 404 374.3 391 371.3C378 368.3 365 345.7 352 343.3C339 341 326 359 313 362.8C300 366.7 287 356.3 274 347.3C261 338.3 248 330.7 235 329.8C222 329 209 335 196 333.5C183 332 170 323 156.8 323C143.7 323 130.3 332 117.2 340.3C104 348.7 91 356.3 78 351.8C65 347.3 52 330.7 39 326.8C26 323 13 332 6.5 336.5L0 341Z" fill="#4b2c16"></path><path d="M0 370L6.5 367.8C13 365.7 26 361.3 39 367.3C52 373.3 65 389.7 78 393.3C91 397 104 388 117.2 380.5C130.3 373 143.7 367 156.8 370C170 373 183 385 196 386.5C209 388 222 379 235 376C248 373 261 376 274 383.5C287 391 300 403 313 403C326 403 339 391 352 391.8C365 392.7 378 406.3 391 407.8C404 409.3 417 398.7 430.2 392.7C443.3 386.7 456.7 385.3 469.8 383.8C483 382.3 496 380.7 509 385.8C522 391 535 403 548 407.5C561 412 574 409 587 405.3C600 401.7 613 397.3 626 398.2C639 399 652 405 665 407.2C678 409.3 691 407.7 704 403.2C717 398.7 730 391.3 743.2 383.8C756.3 376.3 769.7 368.7 782.8 372.3C796 376 809 391 822 399.3C835 407.7 848 409.3 861 401.8C874 394.3 887 377.7 893.5 369.3L900 361L900 346L893.5 352C887 358 874 370 861 376C848 382 835 382 822 374.5C809 367 796 352 782.8 346.7C769.7 341.3 756.3 345.7 743.2 353.8C730 362 717 374 704 380C691 386 678 386 665 385.3C652 384.7 639 383.3 626 380.3C613 377.3 600 372.7 587 372.7C574 372.7 561 377.3 548 376.7C535 376 522 370 509 368.5C496 367 483 370 469.8 369.2C456.7 368.3 443.3 363.7 430.2 369.7C417 375.7 404 392.3 391 390.2C378 388 365 367 352 363.2C339 359.3 326 372.7 313 375.7C300 378.7 287 371.3 274 366.2C261 361 248 358 235 358.7C222 359.3 209 363.7 196 361.3C183 359 170 350 156.8 350C143.7 350 130.3 359 117.2 365C104 371 91 374 78 369.5C65 365 52 353 39 349.3C26 345.7 13 350.3 6.5 352.7L0 355Z" fill="#733e14"></path><path d="M0 433L6.5 431.5C13 430 26 427 39 426.3C52 425.7 65 427.3 78 428.8C91 430.3 104 431.7 117.2 431.7C130.3 431.7 143.7 430.3 156.8 432.7C170 435 183 441 196 441C209 441 222 435 235 433.5C248 432 261 435 274 435.7C287 436.3 300 434.7 313 432.3C326 430 339 427 352 427.8C365 428.7 378 433.3 391 435.7C404 438 417 438 430.2 439.5C443.3 441 456.7 444 469.8 444.7C483 445.3 496 443.7 509 442.8C522 442 535 442 548 442C561 442 574 442 587 442.8C600 443.7 613 445.3 626 443.8C639 442.3 652 437.7 665 433.8C678 430 691 427 704 427C717 427 730 430 743.2 431.5C756.3 433 769.7 433 782.8 434.5C796 436 809 439 822 439C835 439 848 436 861 433.8C874 431.7 887 430.3 893.5 429.7L900 429L900 359L893.5 367.3C887 375.7 874 392.3 861 399.8C848 407.3 835 405.7 822 397.3C809 389 796 374 782.8 370.3C769.7 366.7 756.3 374.3 743.2 381.8C730 389.3 717 396.7 704 401.2C691 405.7 678 407.3 665 405.2C652 403 639 397 626 396.2C613 395.3 600 399.7 587 403.3C574 407 561 410 548 405.5C535 401 522 389 509 383.8C496 378.7 483 380.3 469.8 381.8C456.7 383.3 443.3 384.7 430.2 390.7C417 396.7 404 407.3 391 405.8C378 404.3 365 390.7 352 389.8C339 389 326 401 313 401C300 401 287 389 274 381.5C261 374 248 371 235 374C222 377 209 386 196 384.5C183 383 170 371 156.8 368C143.7 365 130.3 371 117.2 378.5C104 386 91 395 78 391.3C65 387.7 52 371.3 39 365.3C26 359.3 13 363.7 6.5 365.8L0 368Z" fill="#9f500f"></path><path d="M0 451L6.5 451C13 451 26 451 39 451C52 451 65 451 78 451C91 451 104 451 117.2 451C130.3 451 143.7 451 156.8 451C170 451 183 451 196 451C209 451 222 451 235 451C248 451 261 451 274 451C287 451 300 451 313 451C326 451 339 451 352 451C365 451 378 451 391 451C404 451 417 451 430.2 451C443.3 451 456.7 451 469.8 451C483 451 496 451 509 451C522 451 535 451 548 451C561 451 574 451 587 451C600 451 613 451 626 451C639 451 652 451 665 451C678 451 691 451 704 451C717 451 730 451 743.2 451C756.3 451 769.7 451 782.8 451C796 451 809 451 822 451C835 451 848 451 861 451C874 451 887 451 893.5 451L900 451L900 427L893.5 427.7C887 428.3 874 429.7 861 431.8C848 434 835 437 822 437C809 437 796 434 782.8 432.5C769.7 431 756.3 431 743.2 429.5C730 428 717 425 704 425C691 425 678 428 665 431.8C652 435.7 639 440.3 626 441.8C613 443.3 600 441.7 587 440.8C574 440 561 440 548 440C535 440 522 440 509 440.8C496 441.7 483 443.3 469.8 442.7C456.7 442 443.3 439 430.2 437.5C417 436 404 436 391 433.7C378 431.3 365 426.7 352 425.8C339 425 326 428 313 430.3C300 432.7 287 434.3 274 433.7C261 433 248 430 235 431.5C222 433 209 439 196 439C183 439 170 433 156.8 430.7C143.7 428.3 130.3 429.7 117.2 429.7C104 429.7 91 428.3 78 426.8C65 425.3 52 423.7 39 424.3C26 425 13 428 6.5 429.5L0 431Z" fill="#cc6200"></path></svg>