<svg id="visual" viewBox="0 0 960 540" width="960" height="540" xmlns="http://www.w3.org/2000/svg" xmlns:xlink="http://www.w3.org/1999/xlink" version="1.1"><path d="M0 0L8.5 4.7C17 9.3 34 18.7 50.8 31.5C67.7 44.3 84.3 60.7 101.2 63.3C118 66 135 55 151.8 44.2C168.7 33.3 185.3 22.7 202.2 31.7C219 40.7 236 69.3 252.8 77.3C269.7 85.3 286.3 72.7 303.2 60.2C320 47.7 337 35.3 353.8 29.2C370.7 23 387.3 23 404.2 22C421 21 438 19 454.8 22.5C471.7 26 488.3 35 505.2 53C522 71 539 98 555.8 101.7C572.7 105.3 589.3 85.7 606.2 85.7C623 85.7 640 105.3 656.8 99.8C673.7 94.3 690.3 63.7 707.2 65.5C724 67.3 741 101.7 757.8 115.2C774.7 128.7 791.3 121.3 808.2 116C825 110.7 842 107.3 858.8 95.7C875.7 84 892.3 64 909.2 48.7C926 33.3 943 22.7 951.5 17.3L960 12L960 0L951.5 0C943 0 926 0 909.2 0C892.3 0 875.7 0 858.8 0C842 0 825 0 808.2 0C791.3 0 774.7 0 757.8 0C741 0 724 0 707.2 0C690.3 0 673.7 0 656.8 0C640 0 623 0 606.2 0C589.3 0 572.7 0 555.8 0C539 0 522 0 505.2 0C488.3 0 471.7 0 454.8 0C438 0 421 0 404.2 0C387.3 0 370.7 0 353.8 0C337 0 320 0 303.2 0C286.3 0 269.7 0 252.8 0C236 0 219 0 202.2 0C185.3 0 168.7 0 151.8 0C135 0 118 0 101.2 0C84.3 0 67.7 0 50.8 0C34 0 17 0 8.5 0L0 0Z" fill="#bb340a"></path><path d="M0 33L8.5 33C17 33 34 33 50.8 48.3C67.7 63.7 84.3 94.3 101.2 98C118 101.7 135 78.3 151.8 60.3C168.7 42.3 185.3 29.7 202.2 41.3C219 53 236 89 252.8 97.2C269.7 105.3 286.3 85.7 303.2 76.7C320 67.7 337 69.3 353.8 67.5C370.7 65.7 387.3 60.3 404.2 57.7C421 55 438 55 454.8 62.2C471.7 69.3 488.3 83.7 505.2 97.2C522 110.7 539 123.3 555.8 122.5C572.7 121.7 589.3 107.3 606.2 109.2C623 111 640 129 656.8 129C673.7 129 690.3 111 707.2 118.2C724 125.3 741 157.7 757.8 172C774.7 186.3 791.3 182.7 808.2 171.8C825 161 842 143 858.8 122.3C875.7 101.7 892.3 78.3 909.2 64C926 49.7 943 44.3 951.5 41.7L960 39L960 10L951.5 15.3C943 20.7 926 31.3 909.2 46.7C892.3 62 875.7 82 858.8 93.7C842 105.3 825 108.7 808.2 114C791.3 119.3 774.7 126.7 757.8 113.2C741 99.7 724 65.3 707.2 63.5C690.3 61.7 673.7 92.3 656.8 97.8C640 103.3 623 83.7 606.2 83.7C589.3 83.7 572.7 103.3 555.8 99.7C539 96 522 69 505.2 51C488.3 33 471.7 24 454.8 20.5C438 17 421 19 404.2 20C387.3 21 370.7 21 353.8 27.2C337 33.3 320 45.7 303.2 58.2C286.3 70.7 269.7 83.3 252.8 75.3C236 67.3 219 38.7 202.2 29.7C185.3 20.7 168.7 31.3 151.8 42.2C135 53 118 64 101.2 61.3C84.3 58.7 67.7 42.3 50.8 29.8C34 17.3 17 8.7 8.5 4.3L0 0Z" fill="#922f10"></path><path d="M0 50L8.5 49C17 48 34 46 50.8 60.3C67.7 74.7 84.3 105.3 101.2 113.5C118 121.7 135 107.3 151.8 90.2C168.7 73 185.3 53 202.2 62C219 71 236 109 252.8 115.3C269.7 121.7 286.3 96.3 303.2 84.7C320 73 337 75 353.8 73.2C370.7 71.3 387.3 65.7 404.2 64.7C421 63.7 438 67.3 454.8 78.2C471.7 89 488.3 107 505.2 119.7C522 132.3 539 139.7 555.8 140.7C572.7 141.7 589.3 136.3 606.2 140.8C623 145.3 640 159.7 656.8 153.3C673.7 147 690.3 120 707.2 126.3C724 132.7 741 172.3 757.8 192.2C774.7 212 791.3 212 808.2 198.5C825 185 842 158 858.8 131.8C875.7 105.7 892.3 80.3 909.2 73C926 65.7 943 76.3 951.5 81.7L960 87L960 37L951.5 39.7C943 42.3 926 47.7 909.2 62C892.3 76.3 875.7 99.7 858.8 120.3C842 141 825 159 808.2 169.8C791.3 180.7 774.7 184.3 757.8 170C741 155.7 724 123.3 707.2 116.2C690.3 109 673.7 127 656.8 127C640 127 623 109 606.2 107.2C589.3 105.3 572.7 119.7 555.8 120.5C539 121.3 522 108.7 505.2 95.2C488.3 81.7 471.7 67.3 454.8 60.2C438 53 421 53 404.2 55.7C387.3 58.3 370.7 63.7 353.8 65.5C337 67.3 320 65.7 303.2 74.7C286.3 83.7 269.7 103.3 252.8 95.2C236 87 219 51 202.2 39.3C185.3 27.7 168.7 40.3 151.8 58.3C135 76.3 118 99.7 101.2 96C84.3 92.3 67.7 61.7 50.8 46.3C34 31 17 31 8.5 31L0 31Z" fill="#6b2813"></path><path d="M0 109L8.5 100C17 91 34 73 50.8 93.7C67.7 114.3 84.3 173.7 101.2 192.5C118 211.3 135 189.7 151.8 160.8C168.7 132 185.3 96 202.2 96C219 96 236 132 252.8 140.2C269.7 148.3 286.3 128.7 303.2 118C320 107.3 337 105.7 353.8 102C370.7 98.3 387.3 92.7 404.2 101.7C421 110.7 438 134.3 454.8 140.7C471.7 147 488.3 136 505.2 137.7C522 139.3 539 153.7 555.8 154.7C572.7 155.7 589.3 143.3 606.2 152.3C623 161.3 640 191.7 656.8 185.3C673.7 179 690.3 136 707.2 134.3C724 132.7 741 172.3 757.8 192.2C774.7 212 791.3 212 808.2 214.7C825 217.3 842 222.7 858.8 215.3C875.7 208 892.3 188 909.2 172.7C926 157.3 943 146.7 951.5 141.3L960 136L960 85L951.5 79.7C943 74.3 926 63.7 909.2 71C892.3 78.3 875.7 103.7 858.8 129.8C842 156 825 183 808.2 196.5C791.3 210 774.7 210 757.8 190.2C741 170.3 724 130.7 707.2 124.3C690.3 118 673.7 145 656.8 151.3C640 157.7 623 143.3 606.2 138.8C589.3 134.3 572.7 139.7 555.8 138.7C539 137.7 522 130.3 505.2 117.7C488.3 105 471.7 87 454.8 76.2C438 65.3 421 61.7 404.2 62.7C387.3 63.7 370.7 69.3 353.8 71.2C337 73 320 71 303.2 82.7C286.3 94.3 269.7 119.7 252.8 113.3C236 107 219 69 202.2 60C185.3 51 168.7 71 151.8 88.2C135 105.3 118 119.7 101.2 111.5C84.3 103.3 67.7 72.7 50.8 58.3C34 44 17 46 8.5 47L0 48Z" fill="#452014"></path><path d="M0 114L8.5 108.7C17 103.3 34 92.7 50.8 116.2C67.7 139.7 84.3 197.3 101.2 219C118 240.7 135 226.3 151.8 202.8C168.7 179.3 185.3 146.7 202.2 147.5C219 148.3 236 182.7 252.8 183.7C269.7 184.7 286.3 152.3 303.2 140.7C320 129 337 138 353.8 137C370.7 136 387.3 125 404.2 129.5C421 134 438 154 454.8 163C471.7 172 488.3 170 505.2 170C522 170 539 172 555.8 167.5C572.7 163 589.3 152 606.2 165.5C623 179 640 217 656.8 211.7C673.7 206.3 690.3 157.7 707.2 153.2C724 148.7 741 188.3 757.8 208.2C774.7 228 791.3 228 808.2 233.3C825 238.7 842 249.3 858.8 242.2C875.7 235 892.3 210 909.2 192C926 174 943 163 951.5 157.5L960 152L960 134L951.5 139.3C943 144.7 926 155.3 909.2 170.7C892.3 186 875.7 206 858.8 213.3C842 220.7 825 215.3 808.2 212.7C791.3 210 774.7 210 757.8 190.2C741 170.3 724 130.7 707.2 132.3C690.3 134 673.7 177 656.8 183.3C640 189.7 623 159.3 606.2 150.3C589.3 141.3 572.7 153.7 555.8 152.7C539 151.7 522 137.3 505.2 135.7C488.3 134 471.7 145 454.8 138.7C438 132.3 421 108.7 404.2 99.7C387.3 90.7 370.7 96.3 353.8 100C337 103.7 320 105.3 303.2 116C286.3 126.7 269.7 146.3 252.8 138.2C236 130 219 94 202.2 94C185.3 94 168.7 130 151.8 158.8C135 187.7 118 209.3 101.2 190.5C84.3 171.7 67.7 112.3 50.8 91.7C34 71 17 89 8.5 98L0 107Z" fill="#221713"></path><path d="M0 384L8.5 341.8C17 299.7 34 215.3 50.8 195.7C67.7 176 84.3 221 101.2 245.2C118 269.3 135 272.7 151.8 258.2C168.7 243.7 185.3 211.3 202.2 235.7C219 260 236 341 252.8 353.7C269.7 366.3 286.3 310.7 303.2 290.8C320 271 337 287 353.8 279.8C370.7 272.7 387.3 242.3 404.2 255C421 267.7 438 323.3 454.8 351.2C471.7 379 488.3 379 505.2 362.8C522 346.7 539 314.3 555.8 295.5C572.7 276.7 589.3 271.3 606.2 280.3C623 289.3 640 312.7 656.8 334.2C673.7 355.7 690.3 375.3 707.2 374.3C724 373.3 741 351.7 757.8 336.3C774.7 321 791.3 312 808.2 318.3C825 324.7 842 346.3 858.8 328.3C875.7 310.3 892.3 252.7 909.2 222.2C926 191.7 943 188.3 951.5 186.7L960 185L960 150L951.5 155.5C943 161 926 172 909.2 190C892.3 208 875.7 233 858.8 240.2C842 247.3 825 236.7 808.2 231.3C791.3 226 774.7 226 757.8 206.2C741 186.3 724 146.7 707.2 151.2C690.3 155.7 673.7 204.3 656.8 209.7C640 215 623 177 606.2 163.5C589.3 150 572.7 161 555.8 165.5C539 170 522 168 505.2 168C488.3 168 471.7 170 454.8 161C438 152 421 132 404.2 127.5C387.3 123 370.7 134 353.8 135C337 136 320 127 303.2 138.7C286.3 150.3 269.7 182.7 252.8 181.7C236 180.7 219 146.3 202.2 145.5C185.3 144.7 168.7 177.3 151.8 200.8C135 224.3 118 238.7 101.2 217C84.3 195.3 67.7 137.7 50.8 114.2C34 90.7 17 101.3 8.5 106.7L0 112Z" fill="#121212"></path><path d="M0 433L8.5 417.7C17 402.3 34 371.7 50.8 369.8C67.7 368 84.3 395 101.2 405C118 415 135 408 151.8 401.7C168.7 395.3 185.3 389.7 202.2 394.2C219 398.7 236 413.3 252.8 417.8C269.7 422.3 286.3 416.7 303.2 413C320 409.3 337 407.7 353.8 400.5C370.7 393.3 387.3 380.7 404.2 377C421 373.3 438 378.7 454.8 384.2C471.7 389.7 488.3 395.3 505.2 388.2C522 381 539 361 555.8 352C572.7 343 589.3 345 606.2 354C623 363 640 379 656.8 390.7C673.7 402.3 690.3 409.7 707.2 418.7C724 427.7 741 438.3 757.8 429.3C774.7 420.3 791.3 391.7 808.2 389C825 386.3 842 409.7 858.8 415C875.7 420.3 892.3 407.7 909.2 399.5C926 391.3 943 387.7 951.5 385.8L960 384L960 183L951.5 184.7C943 186.3 926 189.7 909.2 220.2C892.3 250.7 875.7 308.3 858.8 326.3C842 344.3 825 322.7 808.2 316.3C791.3 310 774.7 319 757.8 334.3C741 349.7 724 371.3 707.2 372.3C690.3 373.3 673.7 353.7 656.8 332.2C640 310.7 623 287.3 606.2 278.3C589.3 269.3 572.7 274.7 555.8 293.5C539 312.3 522 344.7 505.2 360.8C488.3 377 471.7 377 454.8 349.2C438 321.3 421 265.7 404.2 253C387.3 240.3 370.7 270.7 353.8 277.8C337 285 320 269 303.2 288.8C286.3 308.7 269.7 364.3 252.8 351.7C236 339 219 258 202.2 233.7C185.3 209.3 168.7 241.7 151.8 256.2C135 270.7 118 267.3 101.2 243.2C84.3 219 67.7 174 50.8 193.7C34 213.3 17 297.7 8.5 339.8L0 382Z" fill="#121212"></path><path d="M0 438L8.5 429C17 420 34 402 50.8 399.3C67.7 396.7 84.3 409.3 101.2 419.3C118 429.3 135 436.7 151.8 431.3C168.7 426 185.3 408 202.2 410.7C219 413.3 236 436.7 252.8 443C269.7 449.3 286.3 438.7 303.2 434.2C320 429.7 337 431.3 353.8 425C370.7 418.7 387.3 404.3 404.2 400.7C421 397 438 404 454.8 406.7C471.7 409.3 488.3 407.7 505.2 403.2C522 398.7 539 391.3 555.8 386.8C572.7 382.3 589.3 380.7 606.2 385.2C623 389.7 640 400.3 656.8 407.5C673.7 414.7 690.3 418.3 707.2 424.7C724 431 741 440 757.8 432C774.7 424 791.3 399 808.2 396.3C825 393.7 842 413.3 858.8 422.3C875.7 431.3 892.3 429.7 909.2 427.8C926 426 943 424 951.5 423L960 422L960 382L951.5 383.8C943 385.7 926 389.3 909.2 397.5C892.3 405.7 875.7 418.3 858.8 413C842 407.7 825 384.3 808.2 387C791.3 389.7 774.7 418.3 757.8 427.3C741 436.3 724 425.7 707.2 416.7C690.3 407.7 673.7 400.3 656.8 388.7C640 377 623 361 606.2 352C589.3 343 572.7 341 555.8 350C539 359 522 379 505.2 386.2C488.3 393.3 471.7 387.7 454.8 382.2C438 376.7 421 371.3 404.2 375C387.3 378.7 370.7 391.3 353.8 398.5C337 405.7 320 407.3 303.2 411C286.3 414.7 269.7 420.3 252.8 415.8C236 411.3 219 396.7 202.2 392.2C185.3 387.7 168.7 393.3 151.8 399.7C135 406 118 413 101.2 403C84.3 393 67.7 366 50.8 367.8C34 369.7 17 400.3 8.5 415.7L0 431Z" fill="#221713"></path><path d="M0 498L8.5 483.5C17 469 34 440 50.8 430C67.7 420 84.3 429 101.2 439.8C118 450.7 135 463.3 151.8 457.2C168.7 451 185.3 426 202.2 425.2C219 424.3 236 447.7 252.8 456.7C269.7 465.7 286.3 460.3 303.2 459.3C320 458.3 337 461.7 353.8 455.3C370.7 449 387.3 433 404.2 429.5C421 426 438 435 454.8 442.2C471.7 449.3 488.3 454.7 505.2 448.3C522 442 539 424 555.8 416.8C572.7 409.7 589.3 413.3 606.2 417C623 420.7 640 424.3 656.8 431.5C673.7 438.7 690.3 449.3 707.2 460C724 470.7 741 481.3 757.8 472.3C774.7 463.3 791.3 434.7 808.2 429.3C825 424 842 442 858.8 451C875.7 460 892.3 460 909.2 461.8C926 463.7 943 467.3 951.5 469.2L960 471L960 420L951.5 421C943 422 926 424 909.2 425.8C892.3 427.7 875.7 429.3 858.8 420.3C842 411.3 825 391.7 808.2 394.3C791.3 397 774.7 422 757.8 430C741 438 724 429 707.2 422.7C690.3 416.3 673.7 412.7 656.8 405.5C640 398.3 623 387.7 606.2 383.2C589.3 378.7 572.7 380.3 555.8 384.8C539 389.3 522 396.7 505.2 401.2C488.3 405.7 471.7 407.3 454.8 404.7C438 402 421 395 404.2 398.7C387.3 402.3 370.7 416.7 353.8 423C337 429.3 320 427.7 303.2 432.2C286.3 436.7 269.7 447.3 252.8 441C236 434.7 219 411.3 202.2 408.7C185.3 406 168.7 424 151.8 429.3C135 434.7 118 427.3 101.2 417.3C84.3 407.3 67.7 394.7 50.8 397.3C34 400 17 418 8.5 427L0 436Z" fill="#452014"></path><path d="M0 514L8.5 500.5C17 487 34 460 50.8 460C67.7 460 84.3 487 101.2 497.8C118 508.7 135 503.3 151.8 494.3C168.7 485.3 185.3 472.7 202.2 474.5C219 476.3 236 492.7 252.8 497.2C269.7 501.7 286.3 494.3 303.2 489.8C320 485.3 337 483.7 353.8 478.3C370.7 473 387.3 464 404.2 467.5C421 471 438 487 454.8 496C471.7 505 488.3 507 505.2 499C522 491 539 473 555.8 467.5C572.7 462 589.3 469 606.2 464.5C623 460 640 444 656.8 449.5C673.7 455 690.3 482 707.2 496.3C724 510.7 741 512.3 757.8 506C774.7 499.7 791.3 485.3 808.2 480.8C825 476.3 842 481.7 858.8 487C875.7 492.3 892.3 497.7 909.2 495C926 492.3 943 481.7 951.5 476.3L960 471L960 469L951.5 467.2C943 465.3 926 461.7 909.2 459.8C892.3 458 875.7 458 858.8 449C842 440 825 422 808.2 427.3C791.3 432.7 774.7 461.3 757.8 470.3C741 479.3 724 468.7 707.2 458C690.3 447.3 673.7 436.7 656.8 429.5C640 422.3 623 418.7 606.2 415C589.3 411.3 572.7 407.7 555.8 414.8C539 422 522 440 505.2 446.3C488.3 452.7 471.7 447.3 454.8 440.2C438 433 421 424 404.2 427.5C387.3 431 370.7 447 353.8 453.3C337 459.7 320 456.3 303.2 457.3C286.3 458.3 269.7 463.7 252.8 454.7C236 445.7 219 422.3 202.2 423.2C185.3 424 168.7 449 151.8 455.2C135 461.3 118 448.7 101.2 437.8C84.3 427 67.7 418 50.8 428C34 438 17 467 8.5 481.5L0 496Z" fill="#6b2813"></path><path d="M0 525L8.5 523.2C17 521.3 34 517.7 50.8 520.3C67.7 523 84.3 532 101.2 532C118 532 135 523 151.8 516.7C168.7 510.3 185.3 506.7 202.2 505.8C219 505 236 507 252.8 506.2C269.7 505.3 286.3 501.7 303.2 500.7C320 499.7 337 501.3 353.8 507.7C370.7 514 387.3 525 404.2 530.5C421 536 438 536 454.8 532.3C471.7 528.7 488.3 521.3 505.2 519.5C522 517.7 539 521.3 555.8 519.5C572.7 517.7 589.3 510.3 606.2 508.5C623 506.7 640 510.3 656.8 513C673.7 515.7 690.3 517.3 707.2 521C724 524.7 741 530.3 757.8 534C774.7 537.7 791.3 539.3 808.2 533.8C825 528.3 842 515.7 858.8 513C875.7 510.3 892.3 517.7 909.2 524C926 530.3 943 535.7 951.5 538.3L960 541L960 469L951.5 474.3C943 479.7 926 490.3 909.2 493C892.3 495.7 875.7 490.3 858.8 485C842 479.7 825 474.3 808.2 478.8C791.3 483.3 774.7 497.7 757.8 504C741 510.3 724 508.7 707.2 494.3C690.3 480 673.7 453 656.8 447.5C640 442 623 458 606.2 462.5C589.3 467 572.7 460 555.8 465.5C539 471 522 489 505.2 497C488.3 505 471.7 503 454.8 494C438 485 421 469 404.2 465.5C387.3 462 370.7 471 353.8 476.3C337 481.7 320 483.3 303.2 487.8C286.3 492.3 269.7 499.7 252.8 495.2C236 490.7 219 474.3 202.2 472.5C185.3 470.7 168.7 483.3 151.8 492.3C135 501.3 118 506.7 101.2 495.8C84.3 485 67.7 458 50.8 458C34 458 17 485 8.5 498.5L0 512Z" fill="#922f10"></path><path d="M0 541L8.5 541C17 541 34 541 50.8 541C67.7 541 84.3 541 101.2 541C118 541 135 541 151.8 541C168.7 541 185.3 541 202.2 541C219 541 236 541 252.8 541C269.7 541 286.3 541 303.2 541C320 541 337 541 353.8 541C370.7 541 387.3 541 404.2 541C421 541 438 541 454.8 541C471.7 541 488.3 541 505.2 541C522 541 539 541 555.8 541C572.7 541 589.3 541 606.2 541C623 541 640 541 656.8 541C673.7 541 690.3 541 707.2 541C724 541 741 541 757.8 541C774.7 541 791.3 541 808.2 541C825 541 842 541 858.8 541C875.7 541 892.3 541 909.2 541C926 541 943 541 951.5 541L960 541L960 539L951.5 536.3C943 533.7 926 528.3 909.2 522C892.3 515.7 875.7 508.3 858.8 511C842 513.7 825 526.3 808.2 531.8C791.3 537.3 774.7 535.7 757.8 532C741 528.3 724 522.7 707.2 519C690.3 515.3 673.7 513.7 656.8 511C640 508.3 623 504.7 606.2 506.5C589.3 508.3 572.7 515.7 555.8 517.5C539 519.3 522 515.7 505.2 517.5C488.3 519.3 471.7 526.7 454.8 530.3C438 534 421 534 404.2 528.5C387.3 523 370.7 512 353.8 505.7C337 499.3 320 497.7 303.2 498.7C286.3 499.7 269.7 503.3 252.8 504.2C236 505 219 503 202.2 503.8C185.3 504.7 168.7 508.3 151.8 514.7C135 521 118 530 101.2 530C84.3 530 67.7 521 50.8 518.3C34 515.7 17 519.3 8.5 521.2L0 523Z" fill="#bb340a"></path></svg>